<svg width="64" height="64" viewBox="0 0 64 64" fill="none" xmlns="http://www.w3.org/2000/svg">
<rect width="64" height="64" fill="url(#paint0_linear_1584_2059)"/>
<path fill-rule="evenodd" clip-rule="evenodd" d="M50.9386 26.9668L48.8107 26.9674L51.7527 22.5516C51.872 22.3726 51.9117 22.1737 51.8918 21.9748L51.8917 21.8953C51.8898 15.0541 45.3669 15.056 41.0713 15.0572L22.974 15.0622C19.454 15.0433 15.8346 15.2233 13.7868 17.2723C12.6933 18.4062 12.137 19.9973 12.1574 22.0258L12.1574 22.1252C12.1575 22.2644 12.2172 22.4036 12.2769 22.503C12.2769 22.503 12.2769 22.5428 12.2968 22.5627L15.2413 26.9768L13.1532 26.9774C12.5963 26.9775 12.1589 27.4152 12.1591 27.972L12.1647 47.8591C12.1648 48.4159 12.6024 48.8533 13.1593 48.8531L50.9447 48.8425C51.5016 48.8424 51.939 48.4047 51.9388 47.8479L51.9332 27.9608C51.9331 27.404 51.4954 26.9666 50.9386 26.9668ZM41.1116 17.026C46.7396 17.0244 49.4643 17.66 49.863 21.0009L14.2055 21.0109C14.3245 20.0166 14.6624 19.2409 15.2191 18.6839C16.7094 17.1729 19.8687 17.0321 22.9893 17.0311L41.1116 17.026ZM15.0214 22.9994L49.0681 22.9899L46.4242 26.968L17.6675 26.9761L15.0214 22.9994ZM49.9498 46.8541L14.1531 46.8642L14.1481 28.9658L49.9448 28.9557L49.9498 46.8541ZM27.5129 31.5672C27.1151 31.1696 26.4986 31.1698 26.1009 31.5676L20.4546 37.2172C20.2756 37.3962 20.1564 37.6548 20.1565 37.9133C20.1565 38.1718 20.256 38.4303 20.455 38.6093L26.1045 44.2556C26.3034 44.4544 26.562 44.5538 26.8006 44.5537C27.0393 44.5536 27.3177 44.4541 27.4966 44.2552C27.8942 43.8574 27.894 43.2409 27.4962 42.8432L22.5429 37.8927L27.4934 32.9395C27.891 32.5416 27.8909 31.9251 27.493 31.5275L27.5129 31.5672ZM36.5019 31.5647C36.8995 31.1669 37.516 31.1667 37.9138 31.5643L37.894 31.5842L43.5435 37.2306C43.9413 37.6282 43.9415 38.2447 43.5439 38.6425L37.8975 44.2921C37.7186 44.491 37.4402 44.5905 37.2016 44.5906C36.9629 44.5906 36.7044 44.4913 36.5054 44.2925C36.1076 43.8948 36.1074 43.2783 36.505 42.8805L41.4555 37.9272L36.5023 32.9767C36.1044 32.5791 36.1042 31.9626 36.5019 31.5647Z" fill="white"/>
<defs>
<linearGradient id="paint0_linear_1584_2059" x1="32" y1="32" x2="64" y2="5.96047e-07" gradientUnits="userSpaceOnUse">
<stop stop-color="#071C26"/>
<stop offset="1" stop-color="#902EEF"/>
</linearGradient>
</defs>
</svg>
