<svg width="21" height="17" viewBox="0 0 21 17" fill="none" xmlns="http://www.w3.org/2000/svg">
<path d="M20.0003 6H18.9403L20.4203 3.78C20.4703 3.7 20.5003 3.6 20.5003 3.5C20.5003 0 17.2203 0 15.0603 0H5.94031C4.17031 0 2.35031 0.0899999 1.32031 1.12C0.760305 1.69 0.500305 2.49 0.500305 3.51C0.500305 3.6 0.530305 3.7 0.580305 3.78L2.06031 6H1.00031C0.720305 6 0.500305 6.22 0.500305 6.5V16.5C0.500305 16.78 0.720305 17 1.00031 17H20.0003C20.2803 17 20.5003 16.78 20.5003 16.5V6.5C20.5003 6.22 20.2803 6 20.0003 6ZM3.00031 4H18.0003L17.0003 6H4.00031L3.00031 4ZM8.2203 13.99C8.4203 14.18 8.4203 14.5 8.2203 14.69C8.1303 14.79 8.00031 14.84 7.87031 14.84C7.7403 14.84 7.61031 14.79 7.52031 14.69L4.68031 11.85C4.58031 11.76 4.53031 11.63 4.53031 11.5C4.53031 11.37 4.58031 11.24 4.68031 11.15L7.52031 8.31C7.71031 8.11 8.0303 8.11 8.2203 8.31C8.4203 8.5 8.4203 8.82 8.2203 9.01L5.7403 11.5L8.2203 13.99ZM16.2903 11.85L13.4503 14.69C13.3503 14.79 13.2203 14.84 13.1003 14.84C12.9703 14.84 12.8403 14.79 12.7403 14.69C12.5503 14.5 12.5503 14.18 12.7403 13.99L15.2303 11.5L12.7403 9.01C12.5503 8.82 12.5503 8.5 12.7403 8.31C12.9403 8.11 13.2503 8.11 13.4503 8.31L16.2903 11.15C16.4903 11.34 16.4903 11.66 16.2903 11.85Z" fill="black"/>
</svg>
